<?xml version="1.0" encoding="UTF-8"?> <svg xmlns="http://www.w3.org/2000/svg" width="157" height="190" viewBox="0 0 157 190" fill="none"><path d="M12.211 22.872C12.211 23.224 12.147 23.504 12.019 23.712C11.891 23.904 11.635 24 11.251 24C10.723 24 10.331 23.856 10.075 23.568C9.83497 23.264 9.71497 22.752 9.71497 22.032V18.408H4.45897V22.296C4.45897 23.016 4.33097 23.48 4.07497 23.688C3.83497 23.896 3.45097 24 2.92297 24C2.53897 24 2.28297 23.904 2.15497 23.712C2.02697 23.504 1.96297 23.224 1.96297 22.872V13.08C1.96297 12.712 2.02697 12.432 2.15497 12.24C2.28297 12.048 2.53897 11.952 2.92297 11.952C3.45097 11.952 3.83497 12.104 4.07497 12.408C4.33097 12.696 4.45897 13.2 4.45897 13.92V17.232H9.71497V13.68C9.71497 12.96 9.83497 12.496 10.075 12.288C10.331 12.064 10.723 11.952 11.251 11.952C11.635 11.952 11.891 12.048 12.019 12.24C12.147 12.432 12.211 12.712 12.211 13.08V22.872ZM23.0089 21.72C22.4809 22.504 21.8729 23.08 21.1849 23.448C20.5129 23.816 19.7129 24 18.7849 24C17.5689 24 16.6569 23.704 16.0489 23.112C15.4569 22.504 15.1609 21.72 15.1609 20.76C15.1609 20.248 15.2489 19.744 15.4249 19.248C15.6009 18.736 15.9129 18.28 16.3609 17.88C16.8089 17.48 17.4249 17.16 18.2089 16.92C18.9929 16.68 19.9929 16.56 21.2089 16.56H22.9609V15.888C22.9609 14.784 22.7689 14.016 22.3849 13.584C22.0169 13.136 21.4089 12.912 20.5609 12.912C20.0649 12.912 19.6409 13.016 19.2889 13.224C18.9529 13.432 18.6729 13.664 18.4489 13.92C18.2089 14.176 17.9689 14.384 17.7289 14.544C17.4889 14.688 17.2409 14.76 16.9849 14.76C16.6969 14.76 16.4809 14.68 16.3369 14.52C16.2089 14.344 16.1449 14.152 16.1449 13.944C16.1449 13.608 16.2729 13.344 16.5289 13.152C16.7849 12.944 17.0969 12.76 17.4649 12.6C18.0089 12.376 18.6089 12.216 19.2649 12.12C19.9369 12.008 20.5289 11.952 21.0409 11.952C22.2249 11.952 23.1369 12.12 23.7769 12.456C24.4169 12.776 24.8569 13.256 25.0969 13.896C25.3529 14.536 25.4809 15.336 25.4809 16.296V22.872C25.4809 23.224 25.4169 23.504 25.2889 23.712C25.1769 23.904 24.9289 24 24.5449 24C24.0169 24 23.6409 23.824 23.4169 23.472C23.1929 23.104 23.0809 22.528 23.0809 21.744L23.0089 21.72ZM21.5929 17.568C20.5689 17.568 19.7689 17.696 19.1929 17.952C18.6169 18.208 18.2169 18.552 17.9929 18.984C17.7689 19.416 17.6569 19.896 17.6569 20.424C17.6569 21.16 17.8489 21.672 18.2329 21.96C18.6169 22.248 19.1209 22.392 19.7449 22.392C20.1449 22.392 20.5929 22.296 21.0889 22.104C21.6009 21.896 22.0409 21.584 22.4089 21.168C22.7929 20.752 22.9849 20.224 22.9849 19.584V17.568H21.5929ZM34.9105 13.08C34.9105 12.776 34.9825 12.512 35.1265 12.288C35.2705 12.064 35.5905 11.952 36.0865 11.952C36.4865 11.952 36.7905 12.032 36.9985 12.192C37.2225 12.352 37.3345 12.76 37.3345 13.416V17.16H38.0305L41.8225 12.936C42.1585 12.568 42.4625 12.312 42.7345 12.168C43.0225 12.024 43.3025 11.952 43.5745 11.952C43.8145 11.952 43.9825 12.008 44.0785 12.12C44.1905 12.232 44.2465 12.376 44.2465 12.552C44.2465 12.824 44.0945 13.088 43.7905 13.344C43.5025 13.6 43.1345 13.896 42.6865 14.232C42.2385 14.552 41.7745 14.96 41.2945 15.456C40.9425 15.808 40.6465 16.12 40.4065 16.392C40.1825 16.648 39.9105 16.936 39.5905 17.256L44.1265 22.776C44.3985 23.08 44.5345 23.336 44.5345 23.544C44.5345 23.656 44.4705 23.76 44.3425 23.856C44.2305 23.952 43.9185 24 43.4065 24C42.8625 24 42.4705 23.936 42.2305 23.808C42.0065 23.664 41.8065 23.48 41.6305 23.256L37.8385 18.24H37.3345V22.536C37.3345 23.128 37.2225 23.52 36.9985 23.712C36.7905 23.904 36.4865 24 36.0865 24C35.5905 24 35.2705 23.904 35.1265 23.712C34.9825 23.504 34.9105 23.224 34.9105 22.872V18.24H34.4065L30.6145 23.256C30.4545 23.48 30.2545 23.664 30.0145 23.808C29.7905 23.936 29.3985 24 28.8385 24C28.3265 24 28.0065 23.952 27.8785 23.856C27.7665 23.76 27.7105 23.656 27.7105 23.544C27.7105 23.336 27.8465 23.08 28.1185 22.776L32.6545 17.256C32.3345 16.936 32.0545 16.648 31.8145 16.392C31.5905 16.12 31.3025 15.808 30.9505 15.456C30.4865 14.96 30.0225 14.552 29.5585 14.232C29.1105 13.896 28.7345 13.6 28.4305 13.344C28.1425 13.088 27.9985 12.824 27.9985 12.552C27.9985 12.376 28.0465 12.232 28.1425 12.12C28.2545 12.008 28.4305 11.952 28.6705 11.952C28.9425 11.952 29.2145 12.024 29.4865 12.168C29.7745 12.312 30.0865 12.568 30.4225 12.936L34.2145 17.16H34.9105V13.08ZM46.9395 13.08C46.9395 12.712 47.0195 12.432 47.1795 12.24C47.3395 12.048 47.6115 11.952 47.9955 11.952C48.5075 11.952 48.8755 12.008 49.0995 12.12C49.3235 12.216 49.5155 12.4 49.6755 12.672L53.3955 21.408H53.4435L57.1635 12.672C57.2755 12.416 57.4755 12.232 57.7635 12.12C58.0515 12.008 58.3795 11.952 58.7475 11.952C59.1315 11.952 59.3875 12.048 59.5155 12.24C59.6435 12.432 59.7075 12.712 59.7075 13.08V22.872C59.7075 23.224 59.6435 23.504 59.5155 23.712C59.3875 23.904 59.1315 24 58.7475 24C58.2195 24 57.8275 23.856 57.5715 23.568C57.3315 23.264 57.2115 22.752 57.2115 22.032V16.32H57.1155L54.0675 23.232C53.9395 23.536 53.7875 23.744 53.6115 23.856C53.4355 23.952 53.2515 24 53.0595 24C52.8515 24 52.6675 23.952 52.5075 23.856C52.3475 23.76 52.2115 23.592 52.0995 23.352L48.7635 15.792H48.6675V22.032C48.6675 22.752 48.6195 23.264 48.5235 23.568C48.4275 23.856 48.1715 24 47.7555 24C47.4515 24 47.2355 23.904 47.1075 23.712C46.9955 23.52 46.9395 23.272 46.9395 22.968V13.08ZM73.8047 22.872C73.8047 23.224 73.7407 23.504 73.6127 23.712C73.4847 23.904 73.2287 24 72.8447 24C72.3167 24 71.9247 23.856 71.6687 23.568C71.4287 23.264 71.3087 22.752 71.3087 22.032V15.168L65.8847 23.376C65.6287 23.792 65.1727 24 64.5167 24C64.1327 24 63.8767 23.904 63.7487 23.712C63.6207 23.504 63.5567 23.224 63.5567 22.872V13.08C63.5567 12.712 63.6207 12.432 63.7487 12.24C63.8767 12.048 64.1327 11.952 64.5167 11.952C65.0447 11.952 65.4287 12.104 65.6687 12.408C65.9247 12.696 66.0527 13.2 66.0527 13.92V20.88L71.4527 12.672C71.6287 12.4 71.8127 12.216 72.0047 12.12C72.1967 12.008 72.4767 11.952 72.8447 11.952C73.2287 11.952 73.4847 12.048 73.6127 12.24C73.7407 12.432 73.8047 12.712 73.8047 13.08V22.872ZM78.6507 23.712C78.2347 23.632 77.9147 23.496 77.6907 23.304C77.4827 23.096 77.3387 22.872 77.2587 22.632C77.1947 22.376 77.1627 22.16 77.1627 21.984C77.1627 21.376 77.3707 20.936 77.7867 20.664C78.2187 20.392 78.6427 20.256 79.0587 20.256C79.4747 20.256 79.8667 20.392 80.2347 20.664C80.6187 20.92 80.8107 21.32 80.8107 21.864C80.8107 22.168 80.7707 22.456 80.6907 22.728C80.6107 22.984 80.4827 23.304 80.3067 23.688L79.2987 25.824C79.1867 26.064 79.0507 26.232 78.8907 26.328C78.7307 26.424 78.5707 26.472 78.4107 26.472C78.2027 26.472 78.0267 26.408 77.8827 26.28C77.7547 26.152 77.6907 26.008 77.6907 25.848C77.6907 25.8 77.7067 25.728 77.7387 25.632L78.6507 23.712ZM93.057 16.608C93.057 17.344 93.209 17.896 93.513 18.264C93.833 18.632 94.369 18.816 95.121 18.816C95.681 18.816 96.185 18.76 96.633 18.648C97.081 18.536 97.465 18.4 97.785 18.24V13.68C97.785 12.96 97.905 12.496 98.145 12.288C98.401 12.064 98.793 11.952 99.321 11.952C99.705 11.952 99.961 12.048 100.089 12.24C100.217 12.432 100.281 12.712 100.281 13.08V22.872C100.281 23.224 100.217 23.504 100.089 23.712C99.961 23.904 99.705 24 99.321 24C98.793 24 98.401 23.856 98.145 23.568C97.905 23.264 97.785 22.752 97.785 22.032V19.272C97.385 19.48 96.849 19.656 96.177 19.8C95.505 19.944 94.865 20.016 94.257 20.016C92.961 20.016 92.033 19.752 91.473 19.224C90.929 18.68 90.657 17.872 90.657 16.8V13.08C90.657 12.712 90.721 12.432 90.849 12.24C90.977 12.048 91.233 11.952 91.617 11.952C92.145 11.952 92.513 12.104 92.721 12.408C92.945 12.696 93.057 13.2 93.057 13.92V16.608ZM109.383 13.08V22.44C109.383 23.128 109.263 23.56 109.023 23.736C108.799 23.912 108.463 24 108.015 24C107.551 24 107.247 23.904 107.103 23.712C106.959 23.504 106.887 23.224 106.887 22.872V13.08H104.727V13.968C104.727 14.608 104.631 15.024 104.439 15.216C104.247 15.408 103.903 15.504 103.407 15.504C103.055 15.504 102.815 15.416 102.687 15.24C102.575 15.064 102.519 14.816 102.519 14.496V12.696C102.519 12.424 102.591 12.232 102.735 12.12C102.879 12.008 103.063 11.952 103.287 11.952H113.031C113.255 11.952 113.439 12.008 113.583 12.12C113.727 12.232 113.799 12.424 113.799 12.696V14.496C113.799 14.816 113.735 15.064 113.607 15.24C113.495 15.416 113.263 15.504 112.911 15.504C112.415 15.504 112.071 15.408 111.879 15.216C111.687 15.024 111.591 14.608 111.591 13.968V13.08H109.383ZM120.809 24C119.113 24 117.769 23.512 116.777 22.536C115.801 21.544 115.313 20.024 115.313 17.976C115.313 16.568 115.545 15.424 116.009 14.544C116.473 13.664 117.113 13.016 117.929 12.6C118.761 12.168 119.721 11.952 120.809 11.952C122.457 11.952 123.785 12.432 124.793 13.392C125.801 14.352 126.305 15.88 126.305 17.976C126.305 20.024 125.817 21.544 124.841 22.536C123.865 23.512 122.521 24 120.809 24ZM120.809 23.04C121.385 23.04 121.889 22.904 122.321 22.632C122.753 22.36 123.089 21.856 123.329 21.12C123.585 20.384 123.713 19.336 123.713 17.976C123.713 16.616 123.585 15.576 123.329 14.856C123.073 14.12 122.721 13.616 122.273 13.344C121.841 13.056 121.353 12.912 120.809 12.912C120.281 12.912 119.793 13.056 119.345 13.344C118.913 13.616 118.561 14.12 118.289 14.856C118.033 15.576 117.905 16.616 117.905 17.976C117.905 19.32 118.025 20.36 118.265 21.096C118.521 21.832 118.865 22.344 119.297 22.632C119.745 22.904 120.249 23.04 120.809 23.04ZM139.808 17.976C139.808 19.352 139.568 20.488 139.088 21.384C138.608 22.264 137.952 22.92 137.12 23.352C136.288 23.784 135.352 24 134.312 24C133.256 24 132.312 23.792 131.48 23.376C130.648 22.96 129.992 22.248 129.512 21.24C129.048 20.232 128.816 18.832 128.816 17.04C128.816 14.912 128.984 13.16 129.32 11.784C129.672 10.392 130.224 9.312 130.976 8.544C131.728 7.776 132.712 7.24 133.928 6.936C134.168 6.872 134.488 6.792 134.888 6.696C135.304 6.584 135.688 6.488 136.04 6.408C136.392 6.312 136.6 6.256 136.664 6.24C136.952 6.16 137.24 6.064 137.528 5.952C137.816 5.824 138.12 5.76 138.44 5.76C138.568 5.76 138.696 5.8 138.824 5.88C138.968 5.944 139.04 6.088 139.04 6.312C139.04 7.096 138.648 7.656 137.864 7.992C137.08 8.328 136.024 8.608 134.696 8.832C133.688 8.992 132.864 9.304 132.224 9.768C131.584 10.232 131.112 10.904 130.808 11.784C130.52 12.648 130.376 13.784 130.376 15.192H130.544C130.944 14.088 131.496 13.272 132.2 12.744C132.92 12.216 133.776 11.952 134.768 11.952C135.712 11.952 136.56 12.152 137.312 12.552C138.08 12.936 138.688 13.568 139.136 14.448C139.584 15.328 139.808 16.504 139.808 17.976ZM131.384 17.976C131.384 19.576 131.592 20.824 132.008 21.72C132.44 22.6 133.208 23.04 134.312 23.04C134.968 23.04 135.488 22.864 135.872 22.512C136.256 22.16 136.544 21.72 136.736 21.192C136.928 20.648 137.056 20.088 137.12 19.512C137.184 18.936 137.216 18.424 137.216 17.976C137.216 17.672 137.192 17.264 137.144 16.752C137.096 16.224 136.976 15.688 136.784 15.144C136.608 14.6 136.328 14.144 135.944 13.776C135.576 13.392 135.056 13.2 134.384 13.2C133.76 13.2 133.224 13.432 132.776 13.896C132.328 14.36 131.984 14.96 131.744 15.696C131.504 16.416 131.384 17.176 131.384 17.976ZM145.436 17.064H146.732C148.38 17.064 149.532 17.352 150.188 17.928C150.844 18.504 151.172 19.312 151.172 20.352C151.172 21.536 150.732 22.44 149.852 23.064C148.972 23.688 147.708 24 146.06 24H143.9C143.516 24 143.26 23.904 143.132 23.712C143.004 23.504 142.94 23.224 142.94 22.872V13.08C142.94 12.712 143.004 12.432 143.132 12.24C143.26 12.048 143.516 11.952 143.9 11.952C144.428 11.952 144.812 12.104 145.052 12.408C145.308 12.696 145.436 13.2 145.436 13.92V17.064ZM155.036 22.872C155.036 23.224 154.972 23.504 154.844 23.712C154.716 23.904 154.46 24 154.076 24C153.548 24 153.156 23.856 152.9 23.568C152.66 23.264 152.54 22.752 152.54 22.032V13.68C152.54 12.96 152.66 12.496 152.9 12.288C153.156 12.064 153.548 11.952 154.076 11.952C154.46 11.952 154.716 12.048 154.844 12.24C154.972 12.432 155.036 12.712 155.036 13.08V22.872ZM145.964 22.92C146.828 22.92 147.484 22.736 147.932 22.368C148.396 22 148.628 21.36 148.628 20.448C148.628 19.504 148.38 18.888 147.884 18.6C147.388 18.296 146.748 18.144 145.964 18.144H145.412V22.92H145.964ZM25.0999 51.872C25.0999 52.224 25.0359 52.504 24.9079 52.712C24.7799 52.904 24.5239 53 24.1399 53C23.6119 53 23.2199 52.856 22.9639 52.568C22.7239 52.264 22.6039 51.752 22.6039 51.032V42.08H17.4199V51.296C17.4199 52.016 17.2919 52.48 17.0359 52.688C16.7959 52.896 16.4119 53 15.8839 53C15.4999 53 15.2439 52.904 15.1159 52.712C14.9879 52.504 14.9239 52.224 14.9239 51.872V42.08C14.9239 41.712 14.9879 41.432 15.1159 41.24C15.2439 41.048 15.4999 40.952 15.8839 40.952H24.1399C24.5239 40.952 24.7799 41.048 24.9079 41.24C25.0359 41.432 25.0999 41.712 25.0999 42.08V51.872ZM33.7155 53C32.0195 53 30.6755 52.512 29.6835 51.536C28.7075 50.544 28.2195 49.024 28.2195 46.976C28.2195 45.568 28.4515 44.424 28.9155 43.544C29.3795 42.664 30.0195 42.016 30.8355 41.6C31.6675 41.168 32.6275 40.952 33.7155 40.952C35.3635 40.952 36.6915 41.432 37.6995 42.392C38.7075 43.352 39.2115 44.88 39.2115 46.976C39.2115 49.024 38.7235 50.544 37.7475 51.536C36.7715 52.512 35.4275 53 33.7155 53ZM33.7155 52.04C34.2915 52.04 34.7955 51.904 35.2275 51.632C35.6595 51.36 35.9955 50.856 36.2355 50.12C36.4915 49.384 36.6195 48.336 36.6195 46.976C36.6195 45.616 36.4915 44.576 36.2355 43.856C35.9795 43.12 35.6275 42.616 35.1795 42.344C34.7475 42.056 34.2595 41.912 33.7155 41.912C33.1875 41.912 32.6995 42.056 32.2515 42.344C31.8195 42.616 31.4675 43.12 31.1955 43.856C30.9395 44.576 30.8115 45.616 30.8115 46.976C30.8115 48.32 30.9315 49.36 31.1715 50.096C31.4275 50.832 31.7715 51.344 32.2035 51.632C32.6515 51.904 33.1555 52.04 33.7155 52.04ZM50.5303 49.976C50.6903 49.8 50.8903 49.712 51.1303 49.712C51.2583 49.712 51.3783 49.76 51.4903 49.856C51.6183 49.936 51.6823 50.056 51.6823 50.216C51.6823 50.504 51.5783 50.776 51.3703 51.032C50.9223 51.576 50.3543 52.04 49.6663 52.424C48.9943 52.808 48.1143 53 47.0263 53C45.6983 53 44.6343 52.744 43.8343 52.232C43.0343 51.704 42.4583 50.984 42.1063 50.072C41.7703 49.16 41.6023 48.136 41.6023 47C41.6023 45.512 41.8583 44.328 42.3703 43.448C42.8823 42.568 43.5623 41.936 44.4103 41.552C45.2743 41.152 46.2343 40.952 47.2903 40.952C48.3463 40.952 49.2823 41.192 50.0983 41.672C50.4343 41.88 50.7383 42.136 51.0103 42.44C51.2823 42.744 51.4183 43.104 51.4183 43.52C51.4183 43.824 51.3063 44.056 51.0823 44.216C50.8583 44.376 50.6343 44.456 50.4103 44.456C50.0423 44.456 49.7623 44.368 49.5703 44.192C49.3783 44 49.2263 43.752 49.1143 43.448C48.9863 43.064 48.7863 42.712 48.5143 42.392C48.2583 42.072 47.8343 41.912 47.2423 41.912C46.5703 41.912 46.0103 42.064 45.5623 42.368C45.1143 42.672 44.7703 43.2 44.5303 43.952C44.3063 44.688 44.1943 45.704 44.1943 47C44.1943 48.568 44.4183 49.784 44.8663 50.648C45.3143 51.512 46.1223 51.944 47.2903 51.944C47.9463 51.944 48.4743 51.832 48.8743 51.608C49.2743 51.368 49.6023 51.096 49.8583 50.792C50.1143 50.472 50.3383 50.2 50.5303 49.976ZM54.088 42.08C54.088 41.712 54.168 41.432 54.328 41.24C54.488 41.048 54.76 40.952 55.144 40.952C55.656 40.952 56.024 41.008 56.248 41.12C56.472 41.216 56.664 41.4 56.824 41.672L60.544 50.408H60.592L64.312 41.672C64.424 41.416 64.624 41.232 64.912 41.12C65.2 41.008 65.528 40.952 65.896 40.952C66.28 40.952 66.536 41.048 66.664 41.24C66.792 41.432 66.856 41.712 66.856 42.08V51.872C66.856 52.224 66.792 52.504 66.664 52.712C66.536 52.904 66.28 53 65.896 53C65.368 53 64.976 52.856 64.72 52.568C64.48 52.264 64.36 51.752 64.36 51.032V45.32H64.264L61.216 52.232C61.088 52.536 60.936 52.744 60.76 52.856C60.584 52.952 60.4 53 60.208 53C60 53 59.816 52.952 59.656 52.856C59.496 52.76 59.36 52.592 59.248 52.352L55.912 44.792H55.816V51.032C55.816 51.752 55.768 52.264 55.672 52.568C55.576 52.856 55.32 53 54.904 53C54.6 53 54.384 52.904 54.256 52.712C54.144 52.52 54.088 52.272 54.088 51.968V42.08ZM75.4812 53C73.7852 53 72.4412 52.512 71.4492 51.536C70.4732 50.544 69.9852 49.024 69.9852 46.976C69.9852 45.568 70.2172 44.424 70.6812 43.544C71.1452 42.664 71.7852 42.016 72.6012 41.6C73.4332 41.168 74.3932 40.952 75.4812 40.952C77.1292 40.952 78.4572 41.432 79.4652 42.392C80.4732 43.352 80.9772 44.88 80.9772 46.976C80.9772 49.024 80.4892 50.544 79.5132 51.536C78.5372 52.512 77.1932 53 75.4812 53ZM75.4812 52.04C76.0572 52.04 76.5612 51.904 76.9932 51.632C77.4252 51.36 77.7612 50.856 78.0012 50.12C78.2572 49.384 78.3852 48.336 78.3852 46.976C78.3852 45.616 78.2572 44.576 78.0012 43.856C77.7452 43.12 77.3932 42.616 76.9452 42.344C76.5132 42.056 76.0252 41.912 75.4812 41.912C74.9532 41.912 74.4652 42.056 74.0172 42.344C73.5852 42.616 73.2332 43.12 72.9612 43.856C72.7052 44.576 72.5772 45.616 72.5772 46.976C72.5772 48.32 72.6972 49.36 72.9372 50.096C73.1932 50.832 73.5372 51.344 73.9692 51.632C74.4172 51.904 74.9212 52.04 75.4812 52.04ZM89.344 42.08V51.44C89.344 52.128 89.224 52.56 88.984 52.736C88.76 52.912 88.424 53 87.976 53C87.512 53 87.208 52.904 87.064 52.712C86.92 52.504 86.848 52.224 86.848 51.872V42.08H84.688V42.968C84.688 43.608 84.592 44.024 84.4 44.216C84.208 44.408 83.864 44.504 83.368 44.504C83.016 44.504 82.776 44.416 82.648 44.24C82.536 44.064 82.48 43.816 82.48 43.496V41.696C82.48 41.424 82.552 41.232 82.696 41.12C82.84 41.008 83.024 40.952 83.248 40.952H92.992C93.216 40.952 93.4 41.008 93.544 41.12C93.688 41.232 93.76 41.424 93.76 41.696V43.496C93.76 43.816 93.696 44.064 93.568 44.24C93.456 44.416 93.224 44.504 92.872 44.504C92.376 44.504 92.032 44.408 91.84 44.216C91.648 44.024 91.552 43.608 91.552 42.968V42.08H89.344ZM95.9942 41.984C95.9942 41.584 96.0822 41.312 96.2582 41.168C96.4342 41.024 96.6582 40.952 96.9302 40.952C97.4422 40.952 97.8182 41.12 98.0582 41.456C98.2982 41.776 98.4262 42.296 98.4422 43.016V43.208H98.4662C98.8502 42.568 99.3302 42.032 99.9062 41.6C100.498 41.168 101.29 40.952 102.282 40.952C102.986 40.952 103.65 41.104 104.274 41.408C104.898 41.696 105.402 42.232 105.786 43.016C106.186 43.8 106.386 44.92 106.386 46.376C106.386 48.616 105.874 50.28 104.85 51.368C103.826 52.456 102.434 53 100.674 53C99.8742 53 99.1462 52.848 98.4902 52.544V56.576C98.4902 57.296 98.3622 57.76 98.1062 57.968C97.8662 58.176 97.4822 58.28 96.9542 58.28C96.5702 58.28 96.3142 58.176 96.1862 57.968C96.0582 57.776 95.9942 57.504 95.9942 57.152V41.984ZM103.794 46.568C103.794 45.48 103.682 44.648 103.458 44.072C103.234 43.496 102.938 43.104 102.57 42.896C102.202 42.672 101.786 42.56 101.322 42.56C100.89 42.56 100.45 42.696 100.002 42.968C99.5702 43.24 99.2022 43.592 98.8982 44.024C98.6102 44.44 98.4662 44.888 98.4662 45.368V50.576C98.4662 50.896 98.6502 51.224 99.0182 51.56C99.4022 51.88 99.9542 52.04 100.674 52.04C101.298 52.04 101.842 51.872 102.306 51.536C102.77 51.2 103.13 50.632 103.386 49.832C103.658 49.032 103.794 47.944 103.794 46.568ZM118.108 49.976C118.268 49.8 118.468 49.712 118.708 49.712C118.836 49.712 118.956 49.76 119.068 49.856C119.196 49.936 119.26 50.056 119.26 50.216C119.26 50.504 119.156 50.776 118.948 51.032C118.5 51.576 117.924 52.04 117.22 52.424C116.516 52.808 115.62 53 114.532 53C112.612 53 111.188 52.48 110.26 51.44C109.332 50.4 108.868 49.008 108.868 47.264C108.868 45.216 109.348 43.656 110.308 42.584C111.268 41.496 112.66 40.952 114.484 40.952C115.908 40.952 117.068 41.36 117.964 42.176C118.86 42.976 119.308 44.176 119.308 45.776C119.308 46.272 119.156 46.592 118.852 46.736C118.564 46.88 118.26 46.952 117.94 46.952H111.484C111.468 47.048 111.46 47.144 111.46 47.24C111.46 47.32 111.46 47.4 111.46 47.48C111.46 48.792 111.716 49.864 112.228 50.696C112.756 51.528 113.612 51.944 114.796 51.944C115.452 51.944 115.988 51.832 116.404 51.608C116.82 51.368 117.156 51.096 117.412 50.792C117.684 50.472 117.916 50.2 118.108 49.976ZM114.34 41.912C113.604 41.912 112.98 42.224 112.468 42.848C111.972 43.472 111.668 44.504 111.556 45.944H116.044C116.316 45.944 116.516 45.896 116.644 45.8C116.788 45.704 116.86 45.52 116.86 45.248C116.86 44.48 116.732 43.848 116.476 43.352C116.236 42.856 115.924 42.496 115.54 42.272C115.156 42.032 114.756 41.912 114.34 41.912ZM127.453 42.08V51.44C127.453 52.128 127.333 52.56 127.093 52.736C126.869 52.912 126.533 53 126.085 53C125.621 53 125.317 52.904 125.173 52.712C125.029 52.504 124.957 52.224 124.957 51.872V42.08H122.797V42.968C122.797 43.608 122.701 44.024 122.509 44.216C122.317 44.408 121.973 44.504 121.477 44.504C121.125 44.504 120.885 44.416 120.757 44.24C120.645 44.064 120.589 43.816 120.589 43.496V41.696C120.589 41.424 120.661 41.232 120.805 41.12C120.949 41.008 121.133 40.952 121.357 40.952H131.101C131.325 40.952 131.509 41.008 131.653 41.12C131.797 41.232 131.869 41.424 131.869 41.696V43.496C131.869 43.816 131.805 44.064 131.677 44.24C131.565 44.416 131.333 44.504 130.981 44.504C130.485 44.504 130.141 44.408 129.949 44.216C129.757 44.024 129.661 43.608 129.661 42.968V42.08H127.453ZM136.6 46.064H138.832C140.48 46.064 141.64 46.352 142.312 46.928C142.984 47.504 143.32 48.312 143.32 49.352C143.32 50.536 142.872 51.44 141.976 52.064C141.08 52.688 139.808 53 138.16 53H135.064C134.68 53 134.424 52.904 134.296 52.712C134.168 52.504 134.104 52.224 134.104 51.872V42.08C134.104 41.712 134.168 41.432 134.296 41.24C134.424 41.048 134.68 40.952 135.064 40.952C135.592 40.952 135.976 41.104 136.216 41.408C136.472 41.696 136.6 42.2 136.6 42.92V46.064ZM138.064 51.92C138.928 51.92 139.584 51.736 140.032 51.368C140.496 51 140.728 50.36 140.728 49.448C140.728 48.504 140.48 47.888 139.984 47.6C139.488 47.296 138.848 47.144 138.064 47.144H136.576V51.92H138.064Z" fill="#333333"></path><path d="M76.5801 167.491L92.0114 175.357L91.108 158.06L76.5801 167.491ZM143.445 143.524L142.126 142.81L143.445 143.524ZM90.0647 166.786L90.2053 168.28C98.6653 167.484 109.905 165.793 120.191 162.187C130.433 158.598 140.013 153.013 144.764 144.238L143.445 143.524L142.126 142.81C137.911 150.594 129.205 155.849 119.199 159.356C109.239 162.847 98.2712 164.507 89.9242 165.293L90.0647 166.786ZM143.445 143.524L144.764 144.238C149.99 134.586 147.757 124.747 141.858 115.691C135.982 106.67 126.344 98.1965 116.223 90.9387C106.08 83.6643 95.3376 77.5328 87.1432 73.224C83.0432 71.0681 79.5746 69.3652 77.129 68.2004C75.9061 67.6179 74.9386 67.1697 74.2754 66.8666C73.9438 66.7151 73.6883 66.5997 73.5149 66.522C73.4282 66.4831 73.3621 66.4536 73.3172 66.4337C73.2948 66.4237 73.2777 66.4161 73.266 66.411C73.2602 66.4084 73.2557 66.4064 73.2526 66.405C73.251 66.4044 73.2497 66.4038 73.2489 66.4034C73.248 66.403 73.2474 66.4027 72.6427 67.7755C72.038 69.1482 72.0381 69.1482 72.0385 69.1484C72.0391 69.1486 72.0398 69.149 72.041 69.1495C72.0434 69.1505 72.0471 69.1522 72.0522 69.1544C72.0624 69.159 72.0779 69.1659 72.0988 69.1751C72.1406 69.1937 72.2037 69.2218 72.2872 69.2593C72.4543 69.3342 72.7034 69.4466 73.0283 69.5951C73.6781 69.8921 74.6313 70.3336 75.839 70.9088C78.2546 72.0594 81.6873 73.7446 85.747 75.8793C93.872 80.1516 104.483 86.2113 114.475 93.3766C124.49 100.559 133.771 108.773 139.344 117.328C144.894 125.848 146.641 134.472 142.126 142.81L143.445 143.524Z" fill="#333333"></path></svg> 