<?xml version="1.0" encoding="UTF-8"?> <svg xmlns="http://www.w3.org/2000/svg" width="167" height="140" viewBox="0 0 167 140" fill="none"><path d="M5.3045 14.664H5.8085L12.8645 7.464C13.0405 7.288 13.2005 7.168 13.3445 7.104C13.5045 7.024 13.6645 6.984 13.8245 6.984C14.0805 6.984 14.2885 7.072 14.4485 7.248C14.6085 7.408 14.6885 7.576 14.6885 7.752C14.6885 7.864 14.6485 7.96 14.5685 8.04L7.7285 14.808L14.6405 22.416C14.7365 22.528 14.8165 22.64 14.8805 22.752C14.9445 22.864 14.9765 22.984 14.9765 23.112C14.9765 23.336 14.8885 23.544 14.7125 23.736C14.5365 23.912 14.2965 24 13.9925 24C13.6725 24 13.3445 23.928 13.0085 23.784C12.6725 23.64 12.2805 23.32 11.8325 22.824L5.8085 15.984H5.3045V22.44C5.3045 23.016 5.1765 23.424 4.9205 23.664C4.6805 23.888 4.3125 24 3.8165 24C3.0805 24 2.7125 23.6 2.7125 22.8V8.184C2.7125 7.736 2.7925 7.424 2.9525 7.248C3.1285 7.072 3.4005 6.984 3.7685 6.984C4.7925 6.984 5.3045 7.6 5.3045 8.832V14.664ZM16.7872 12.984C16.7872 12.584 16.8752 12.312 17.0512 12.168C17.2272 12.024 17.4512 11.952 17.7232 11.952C18.2352 11.952 18.6112 12.12 18.8512 12.456C19.0912 12.776 19.2192 13.296 19.2352 14.016V14.208H19.2592C19.6432 13.568 20.1232 13.032 20.6992 12.6C21.2912 12.168 22.0832 11.952 23.0752 11.952C23.7792 11.952 24.4432 12.104 25.0672 12.408C25.6912 12.696 26.1952 13.232 26.5792 14.016C26.9792 14.8 27.1792 15.92 27.1792 17.376C27.1792 19.616 26.6672 21.28 25.6432 22.368C24.6192 23.456 23.2272 24 21.4672 24C20.6672 24 19.9392 23.848 19.2832 23.544V27.576C19.2832 28.296 19.1552 28.76 18.8992 28.968C18.6592 29.176 18.2752 29.28 17.7472 29.28C17.3632 29.28 17.1072 29.176 16.9792 28.968C16.8512 28.776 16.7872 28.504 16.7872 28.152V12.984ZM24.5872 17.568C24.5872 16.48 24.4752 15.648 24.2512 15.072C24.0272 14.496 23.7312 14.104 23.3632 13.896C22.9952 13.672 22.5792 13.56 22.1152 13.56C21.6832 13.56 21.2432 13.696 20.7952 13.968C20.3632 14.24 19.9952 14.592 19.6912 15.024C19.4032 15.44 19.2592 15.888 19.2592 16.368V21.576C19.2592 21.896 19.4432 22.224 19.8112 22.56C20.1952 22.88 20.7472 23.04 21.4672 23.04C22.0912 23.04 22.6352 22.872 23.0992 22.536C23.5632 22.2 23.9232 21.632 24.1792 20.832C24.4512 20.032 24.5872 18.944 24.5872 17.568ZM40.6289 22.872C40.6289 23.224 40.5649 23.504 40.4369 23.712C40.3089 23.904 40.0529 24 39.6689 24C39.1409 24 38.7489 23.856 38.4929 23.568C38.2529 23.264 38.1329 22.752 38.1329 22.032V15.168L32.7089 23.376C32.4529 23.792 31.9969 24 31.3409 24C30.9569 24 30.7009 23.904 30.5729 23.712C30.4449 23.504 30.3809 23.224 30.3809 22.872V13.08C30.3809 12.712 30.4449 12.432 30.5729 12.24C30.7009 12.048 30.9569 11.952 31.3409 11.952C31.8689 11.952 32.2529 12.104 32.4929 12.408C32.7489 12.696 32.8769 13.2 32.8769 13.92V20.88L38.2769 12.672C38.4529 12.4 38.6369 12.216 38.8289 12.12C39.0209 12.008 39.3009 11.952 39.6689 11.952C40.0529 11.952 40.3089 12.048 40.4369 12.24C40.5649 12.432 40.6289 12.712 40.6289 13.08V22.872ZM52.6749 20.976C52.8349 20.8 53.0349 20.712 53.2749 20.712C53.4029 20.712 53.5229 20.76 53.6349 20.856C53.7629 20.936 53.8269 21.056 53.8269 21.216C53.8269 21.504 53.7229 21.776 53.5149 22.032C53.0669 22.576 52.4989 23.04 51.8109 23.424C51.1389 23.808 50.2589 24 49.1709 24C47.8429 24 46.7789 23.744 45.9789 23.232C45.1789 22.704 44.6029 21.984 44.2509 21.072C43.9149 20.16 43.7469 19.136 43.7469 18C43.7469 16.512 44.0029 15.328 44.5149 14.448C45.0269 13.568 45.7069 12.936 46.5549 12.552C47.4189 12.152 48.3789 11.952 49.4349 11.952C50.4909 11.952 51.4269 12.192 52.2429 12.672C52.5789 12.88 52.8829 13.136 53.1549 13.44C53.4269 13.744 53.5629 14.104 53.5629 14.52C53.5629 14.824 53.4509 15.056 53.2269 15.216C53.0029 15.376 52.7789 15.456 52.5549 15.456C52.1869 15.456 51.9069 15.368 51.7149 15.192C51.5229 15 51.3709 14.752 51.2589 14.448C51.1309 14.064 50.9309 13.712 50.6589 13.392C50.4029 13.072 49.9789 12.912 49.3869 12.912C48.7149 12.912 48.1549 13.064 47.7069 13.368C47.2589 13.672 46.9149 14.2 46.6749 14.952C46.4509 15.688 46.3389 16.704 46.3389 18C46.3389 19.568 46.5629 20.784 47.0109 21.648C47.4589 22.512 48.2669 22.944 49.4349 22.944C50.0909 22.944 50.6189 22.832 51.0189 22.608C51.4189 22.368 51.7469 22.096 52.0029 21.792C52.2589 21.472 52.4829 21.2 52.6749 20.976ZM61.4885 13.08V22.44C61.4885 23.128 61.3685 23.56 61.1285 23.736C60.9045 23.912 60.5685 24 60.1205 24C59.6565 24 59.3525 23.904 59.2085 23.712C59.0645 23.504 58.9925 23.224 58.9925 22.872V13.08H56.8325V13.968C56.8325 14.608 56.7365 15.024 56.5445 15.216C56.3525 15.408 56.0085 15.504 55.5125 15.504C55.1605 15.504 54.9205 15.416 54.7925 15.24C54.6805 15.064 54.6245 14.816 54.6245 14.496V12.696C54.6245 12.424 54.6965 12.232 54.8405 12.12C54.9845 12.008 55.1685 11.952 55.3925 11.952H65.1365C65.3605 11.952 65.5445 12.008 65.6885 12.12C65.8325 12.232 65.9045 12.424 65.9045 12.696V14.496C65.9045 14.816 65.8405 15.064 65.7125 15.24C65.6005 15.416 65.3685 15.504 65.0165 15.504C64.5205 15.504 64.1765 15.408 63.9845 15.216C63.7925 15.024 63.6965 14.608 63.6965 13.968V13.08H61.4885ZM78.3868 22.872C78.3868 23.224 78.3228 23.504 78.1948 23.712C78.0668 23.904 77.8108 24 77.4268 24C76.8988 24 76.5068 23.856 76.2508 23.568C76.0108 23.264 75.8908 22.752 75.8908 22.032V15.168L70.4668 23.376C70.2108 23.792 69.7548 24 69.0988 24C68.7148 24 68.4588 23.904 68.3308 23.712C68.2028 23.504 68.1388 23.224 68.1388 22.872V13.08C68.1388 12.712 68.2028 12.432 68.3308 12.24C68.4588 12.048 68.7148 11.952 69.0988 11.952C69.6268 11.952 70.0108 12.104 70.2508 12.408C70.5068 12.696 70.6348 13.2 70.6348 13.92V20.88L76.0348 12.672C76.2108 12.4 76.3948 12.216 76.5868 12.12C76.7788 12.008 77.0588 11.952 77.4268 11.952C77.8108 11.952 78.0668 12.048 78.1948 12.24C78.3228 12.432 78.3868 12.712 78.3868 13.08V22.872ZM92.4727 22.872C92.4727 23.224 92.4087 23.504 92.2807 23.712C92.1527 23.904 91.8967 24 91.5127 24C90.9847 24 90.5927 23.856 90.3367 23.568C90.0967 23.264 89.9767 22.752 89.9767 22.032V18.408H84.7207V22.296C84.7207 23.016 84.5927 23.48 84.3367 23.688C84.0967 23.896 83.7127 24 83.1847 24C82.8007 24 82.5447 23.904 82.4167 23.712C82.2887 23.504 82.2247 23.224 82.2247 22.872V13.08C82.2247 12.712 82.2887 12.432 82.4167 12.24C82.5447 12.048 82.8007 11.952 83.1847 11.952C83.7127 11.952 84.0967 12.104 84.3367 12.408C84.5927 12.696 84.7207 13.2 84.7207 13.92V17.232H89.9767V13.68C89.9767 12.96 90.0967 12.496 90.3367 12.288C90.5927 12.064 90.9847 11.952 91.5127 11.952C91.8967 11.952 92.1527 12.048 92.2807 12.24C92.4087 12.432 92.4727 12.712 92.4727 13.08V22.872ZM103.271 21.72C102.743 22.504 102.135 23.08 101.447 23.448C100.775 23.816 99.9746 24 99.0466 24C97.8306 24 96.9186 23.704 96.3106 23.112C95.7186 22.504 95.4226 21.72 95.4226 20.76C95.4226 20.248 95.5106 19.744 95.6866 19.248C95.8626 18.736 96.1746 18.28 96.6226 17.88C97.0706 17.48 97.6866 17.16 98.4706 16.92C99.2546 16.68 100.255 16.56 101.471 16.56H103.223V15.888C103.223 14.784 103.031 14.016 102.647 13.584C102.279 13.136 101.671 12.912 100.823 12.912C100.327 12.912 99.9026 13.016 99.5506 13.224C99.2146 13.432 98.9346 13.664 98.7106 13.92C98.4706 14.176 98.2306 14.384 97.9906 14.544C97.7506 14.688 97.5026 14.76 97.2466 14.76C96.9586 14.76 96.7426 14.68 96.5986 14.52C96.4706 14.344 96.4066 14.152 96.4066 13.944C96.4066 13.608 96.5346 13.344 96.7906 13.152C97.0466 12.944 97.3586 12.76 97.7266 12.6C98.2706 12.376 98.8706 12.216 99.5266 12.12C100.199 12.008 100.791 11.952 101.303 11.952C102.487 11.952 103.399 12.12 104.039 12.456C104.679 12.776 105.119 13.256 105.359 13.896C105.615 14.536 105.743 15.336 105.743 16.296V22.872C105.743 23.224 105.679 23.504 105.551 23.712C105.439 23.904 105.191 24 104.807 24C104.279 24 103.903 23.824 103.679 23.472C103.455 23.104 103.343 22.528 103.343 21.744L103.271 21.72ZM101.855 17.568C100.831 17.568 100.031 17.696 99.4546 17.952C98.8786 18.208 98.4786 18.552 98.2546 18.984C98.0306 19.416 97.9186 19.896 97.9186 20.424C97.9186 21.16 98.1106 21.672 98.4946 21.96C98.8786 22.248 99.3826 22.392 100.007 22.392C100.407 22.392 100.855 22.296 101.351 22.104C101.863 21.896 102.303 21.584 102.671 21.168C103.055 20.752 103.247 20.224 103.247 19.584V17.568H101.855ZM36.3941 53C35.3701 53 34.8581 52.384 34.8581 51.152V45.8C34.1541 46.088 33.4741 46.32 32.8181 46.496C32.1621 46.656 31.4181 46.736 30.5861 46.736C29.5781 46.736 28.6981 46.592 27.9461 46.304C27.2101 46.016 26.6341 45.544 26.2181 44.888C25.8021 44.232 25.5941 43.352 25.5941 42.248V37.184C25.5941 36.736 25.6741 36.424 25.8341 36.248C25.9941 36.072 26.2581 35.984 26.6261 35.984C27.6021 35.984 28.0901 36.6 28.0901 37.832V42.176C28.0901 43.216 28.3461 44.016 28.8581 44.576C29.3701 45.12 30.1781 45.392 31.2821 45.392C31.8101 45.392 32.4021 45.312 33.0581 45.152C33.7141 44.992 34.3141 44.76 34.8581 44.456V37.544C34.8581 36.968 34.9781 36.568 35.2181 36.344C35.4741 36.104 35.8501 35.984 36.3461 35.984C37.0821 35.984 37.4501 36.384 37.4501 37.184V51.8C37.4501 52.248 37.3621 52.56 37.1861 52.736C37.0261 52.912 36.7621 53 36.3941 53ZM47.1476 52.808C46.9076 53.4 46.6276 54.016 46.3076 54.656C46.0036 55.296 45.6516 55.888 45.2516 56.432C44.8516 56.992 44.3956 57.44 43.8836 57.776C43.3876 58.112 42.8356 58.28 42.2276 58.28C41.9076 58.28 41.6356 58.192 41.4116 58.016C41.1876 57.856 41.0756 57.656 41.0756 57.416C41.0756 57.016 41.1956 56.736 41.4356 56.576C41.6756 56.416 41.9876 56.336 42.3716 56.336C42.8196 56.336 43.2196 56.264 43.5716 56.12C43.9236 55.976 44.2116 55.752 44.4356 55.448C44.6596 55.144 44.8436 54.808 44.9876 54.44C45.1476 54.072 45.2996 53.664 45.4436 53.216L40.6916 42.152C40.6436 42.04 40.6116 41.936 40.5956 41.84C40.5796 41.744 40.5716 41.664 40.5716 41.6C40.5716 41.328 40.6676 41.152 40.8596 41.072C41.0516 40.992 41.2516 40.952 41.4596 40.952C41.8276 40.952 42.1876 41.08 42.5396 41.336C42.9076 41.576 43.2036 41.984 43.4276 42.56L46.5716 50.408H46.6916L48.1316 46.208C48.4196 45.36 48.6356 44.672 48.7796 44.144C48.9396 43.616 49.0996 43.056 49.2596 42.464C49.3716 42.08 49.5236 41.736 49.7156 41.432C49.9076 41.112 50.2196 40.952 50.6516 40.952C50.8596 40.952 51.0356 40.992 51.1796 41.072C51.3396 41.152 51.4196 41.296 51.4196 41.504C51.4196 41.648 51.4036 41.768 51.3716 41.864C51.3556 41.944 51.3316 42.04 51.2996 42.152L47.1476 52.808ZM63.6528 51.872C63.6528 52.224 63.5888 52.504 63.4608 52.712C63.3328 52.904 63.0768 53 62.6928 53C62.1648 53 61.7728 52.856 61.5168 52.568C61.2768 52.264 61.1568 51.752 61.1568 51.032V42.08H57.3168V44.6C57.3168 45.96 57.2288 47.224 57.0528 48.392C56.8768 49.544 56.5248 50.528 55.9968 51.344C55.6768 51.84 55.3168 52.24 54.9168 52.544C54.5168 52.848 54.0128 53 53.4048 53C53.1168 53 52.8688 52.928 52.6608 52.784C52.4688 52.64 52.3728 52.4 52.3728 52.064C52.3728 51.856 52.4688 51.648 52.6608 51.44C52.8688 51.232 53.1168 51.096 53.4048 51.032C54.1568 50.856 54.6928 50.472 55.0128 49.88C55.3328 49.272 55.5328 48.504 55.6128 47.576C55.6928 46.632 55.7328 45.592 55.7328 44.456V42.08C55.7328 41.744 55.7888 41.472 55.9008 41.264C56.0288 41.056 56.3088 40.952 56.7408 40.952H62.6928C63.0768 40.952 63.3328 41.048 63.4608 41.24C63.5888 41.432 63.6528 41.712 63.6528 42.08V51.872ZM69.9785 46.112H70.7705L74.9705 41.936C75.3385 41.584 75.6505 41.336 75.9065 41.192C76.1785 41.032 76.4585 40.952 76.7465 40.952C76.9865 40.952 77.1545 41.008 77.2505 41.12C77.3625 41.232 77.4185 41.376 77.4185 41.552C77.4185 41.872 77.2745 42.16 76.9865 42.416C76.7145 42.656 76.3465 42.928 75.8825 43.232C75.4185 43.52 74.9145 43.896 74.3705 44.36C74.0025 44.68 73.6585 44.992 73.3385 45.296C73.0345 45.584 72.7065 45.888 72.3545 46.208L77.0825 51.776C77.2105 51.936 77.3145 52.08 77.3945 52.208C77.4745 52.32 77.5145 52.432 77.5145 52.544C77.5145 52.656 77.4505 52.76 77.3225 52.856C77.2105 52.952 76.8905 53 76.3625 53C75.7865 53 75.3785 52.936 75.1385 52.808C74.9145 52.664 74.7145 52.48 74.5385 52.256L70.5545 47.24H69.9785V51.296C69.9785 52.016 69.8505 52.48 69.5945 52.688C69.3545 52.896 68.9705 53 68.4425 53C68.0585 53 67.8025 52.904 67.6745 52.712C67.5465 52.504 67.4825 52.224 67.4825 51.872V42.08C67.4825 41.712 67.5465 41.432 67.6745 41.24C67.8025 41.048 68.0585 40.952 68.4425 40.952C68.9705 40.952 69.3545 41.104 69.5945 41.408C69.8505 41.696 69.9785 42.2 69.9785 42.92V46.112ZM86.8644 50.72C86.3364 51.504 85.7284 52.08 85.0404 52.448C84.3684 52.816 83.5684 53 82.6404 53C81.4244 53 80.5124 52.704 79.9044 52.112C79.3124 51.504 79.0164 50.72 79.0164 49.76C79.0164 49.248 79.1044 48.744 79.2804 48.248C79.4564 47.736 79.7684 47.28 80.2164 46.88C80.6644 46.48 81.2804 46.16 82.0644 45.92C82.8484 45.68 83.8484 45.56 85.0644 45.56H86.8164V44.888C86.8164 43.784 86.6244 43.016 86.2404 42.584C85.8724 42.136 85.2644 41.912 84.4164 41.912C83.9204 41.912 83.4964 42.016 83.1444 42.224C82.8084 42.432 82.5284 42.664 82.3044 42.92C82.0644 43.176 81.8244 43.384 81.5844 43.544C81.3444 43.688 81.0964 43.76 80.8404 43.76C80.5524 43.76 80.3364 43.68 80.1924 43.52C80.0644 43.344 80.0004 43.152 80.0004 42.944C80.0004 42.608 80.1284 42.344 80.3844 42.152C80.6404 41.944 80.9524 41.76 81.3204 41.6C81.8644 41.376 82.4644 41.216 83.1204 41.12C83.7924 41.008 84.3844 40.952 84.8964 40.952C86.0804 40.952 86.9924 41.12 87.6324 41.456C88.2724 41.776 88.7124 42.256 88.9524 42.896C89.2084 43.536 89.3364 44.336 89.3364 45.296V51.872C89.3364 52.224 89.2724 52.504 89.1444 52.712C89.0324 52.904 88.7844 53 88.4004 53C87.8724 53 87.4964 52.824 87.2724 52.472C87.0484 52.104 86.9364 51.528 86.9364 50.744L86.8644 50.72ZM85.4484 46.568C84.4244 46.568 83.6244 46.696 83.0484 46.952C82.4724 47.208 82.0724 47.552 81.8484 47.984C81.6244 48.416 81.5124 48.896 81.5124 49.424C81.5124 50.16 81.7044 50.672 82.0884 50.96C82.4724 51.248 82.9764 51.392 83.6004 51.392C84.0004 51.392 84.4484 51.296 84.9444 51.104C85.4564 50.896 85.8964 50.584 86.2644 50.168C86.6484 49.752 86.8404 49.224 86.8404 48.584V46.568H85.4484Z" fill="#E9E7DA"></path><path d="M83.0759 115.738L84.2741 114.836L83.0759 115.738ZM164.337 104.914L147.102 106.635L157.21 120.7L164.337 104.914ZM65.9537 64.5247C64.4541 64.4887 64.4541 64.4893 64.4541 64.49C64.454 64.4904 64.454 64.4912 64.454 64.4919C64.454 64.4934 64.4539 64.4953 64.4539 64.4977C64.4538 64.5023 64.4537 64.5087 64.4535 64.5167C64.4532 64.5327 64.4528 64.5553 64.4524 64.5845C64.4516 64.6428 64.4508 64.7272 64.4506 64.8368C64.45 65.0558 64.4517 65.3755 64.4602 65.7879C64.4774 66.6127 64.5221 67.8092 64.632 69.3153C64.8518 72.3268 65.3326 76.5818 66.3771 81.583C68.4642 91.5768 72.8135 104.606 81.8777 116.641L83.0759 115.738L84.2741 114.836C75.5533 103.257 71.3415 90.6792 69.3137 80.9697C68.3008 76.1192 67.8358 71.9984 67.624 69.097C67.5182 67.6467 67.4757 66.5025 67.4596 65.7257C67.4515 65.3373 67.4501 65.0409 67.4505 64.8441C67.4508 64.7458 67.4515 64.6723 67.4522 64.6248C67.4525 64.601 67.4528 64.5837 67.453 64.573C67.4531 64.5676 67.4532 64.5639 67.4532 64.5619C67.4532 64.5608 67.4532 64.5602 67.4532 64.5601C67.4532 64.56 67.4532 64.5601 67.4532 64.5601C67.4532 64.5604 67.4532 64.5607 65.9537 64.5247ZM83.0759 115.738L81.8777 116.641C91.8024 129.818 105.694 131.936 119.075 129.401C132.393 126.879 145.428 119.73 154.19 114.051L153.374 112.792L152.558 111.534C143.904 117.143 131.26 124.04 118.517 126.454C105.837 128.856 93.287 126.803 84.2741 114.836L83.0759 115.738Z" fill="#E9E7DA"></path></svg> 