<?xml version="1.0" encoding="UTF-8"?> <svg xmlns="http://www.w3.org/2000/svg" width="200" height="60" viewBox="0 0 200 60" fill="none"><path d="M100 0.5C127.58 0.5 152.529 3.8542 170.567 9.26562C179.589 11.9723 186.854 15.1854 191.853 18.7305C196.864 22.2847 199.5 26.1003 199.5 30C199.5 33.8997 196.864 37.7153 191.853 41.2695C186.854 44.8146 179.589 48.0277 170.567 50.7344C152.529 56.1458 127.58 59.5 100 59.5C72.4204 59.5 47.4707 56.1458 29.4326 50.7344C20.4105 48.0277 13.1455 44.8146 8.14746 41.2695C3.13645 37.7153 0.5 33.8997 0.5 30C0.5 26.1003 3.13645 22.2847 8.14746 18.7305C13.1455 15.1854 20.4105 11.9723 29.4326 9.26562C47.4707 3.8542 72.4204 0.5 100 0.5Z" stroke="#7C3327"></path></svg> 